<svg xmlns="http://www.w3.org/2000/svg" width="720" height="200" viewBox="0 0 720 200" font-family="-apple-system,Segoe UI,sans-serif" role="img" aria-label="일별 클론·조회 추이">
<title>일별 클론·조회 추이 (2026-08-25 ~ 2026-10-05)</title>
<line x1="34" y1="174.0" x2="710" y2="174.0" stroke="#8b949e" stroke-opacity=".25"/><text x="28" y="178.0" font-size="10" fill="#8b949e" text-anchor="end">0</text><line x1="34" y1="95.0" x2="710" y2="95.0" stroke="#8b949e" stroke-opacity=".25"/><text x="28" y="99.0" font-size="10" fill="#8b949e" text-anchor="end">74</text><line x1="34" y1="16.0" x2="710" y2="16.0" stroke="#8b949e" stroke-opacity=".25"/><text x="28" y="20.0" font-size="10" fill="#8b949e" text-anchor="end">148</text><text x="34.0" y="192" font-size="10" fill="#8b949e" text-anchor="start">08-25</text><text x="380.2" y="192" font-size="10" fill="#8b949e" text-anchor="middle">09-15</text><text x="710.0" y="192" font-size="10" fill="#8b949e" text-anchor="end">10-05</text>
<polyline fill="none" stroke="#3b82f6" stroke-width="2" points="34.0,174.0 50.5,174.0 67.0,174.0 83.5,174.0 100.0,174.0 116.4,174.0 132.9,174.0 149.4,174.0 165.9,174.0 182.4,174.0 198.9,174.0 215.4,174.0 231.9,174.0 248.3,16.0 264.8,139.8 281.3,166.5 297.8,160.1 314.3,153.7 330.8,149.4 347.3,158.0 363.8,166.5 380.2,166.5 396.7,167.6 413.2,155.9 429.7,156.9 446.2,168.7 462.7,163.3 479.2,167.6 495.7,168.7 512.1,152.6 528.6,163.3 545.1,142.0 561.6,146.2 578.1,148.4 594.6,166.5 611.1,165.5 627.6,168.7 644.0,156.9 660.5,166.5 677.0,159.1 693.5,155.9 710.0,174.0"/>
<polyline fill="none" stroke="#f59e0b" stroke-width="2" points="34.0,174.0 50.5,174.0 67.0,174.0 83.5,174.0 100.0,174.0 116.4,174.0 132.9,174.0 149.4,174.0 165.9,174.0 182.4,174.0 198.9,174.0 215.4,174.0 231.9,174.0 248.3,159.1 264.8,172.9 281.3,172.9 297.8,174.0 314.3,174.0 330.8,174.0 347.3,172.9 363.8,174.0 380.2,174.0 396.7,174.0 413.2,174.0 429.7,174.0 446.2,174.0 462.7,174.0 479.2,174.0 495.7,174.0 512.1,172.9 528.6,174.0 545.1,174.0 561.6,174.0 578.1,174.0 594.6,172.9 611.1,174.0 627.6,174.0 644.0,174.0 660.5,174.0 677.0,174.0 693.5,174.0 710.0,174.0"/>
<circle cx="570" cy="12" r="4" fill="#3b82f6"/>
<text x="580" y="16" font-size="11" fill="#8b949e">clones</text>
<circle cx="642" cy="12" r="4" fill="#f59e0b"/>
<text x="652" y="16" font-size="11" fill="#8b949e">views</text>
</svg>
