<svg xmlns="http://www.w3.org/2000/svg" width="720" height="200" viewBox="0 0 720 200" font-family="-apple-system,Segoe UI,sans-serif" role="img" aria-label="일별 클론·조회 추이">
<title>일별 클론·조회 추이 (2026-08-25 ~ 2026-09-20)</title>
<line x1="34" y1="174.0" x2="710" y2="174.0" stroke="#8b949e" stroke-opacity=".25"/><text x="28" y="178.0" font-size="10" fill="#8b949e" text-anchor="end">0</text><line x1="34" y1="95.0" x2="710" y2="95.0" stroke="#8b949e" stroke-opacity=".25"/><text x="28" y="99.0" font-size="10" fill="#8b949e" text-anchor="end">74</text><line x1="34" y1="16.0" x2="710" y2="16.0" stroke="#8b949e" stroke-opacity=".25"/><text x="28" y="20.0" font-size="10" fill="#8b949e" text-anchor="end">148</text><text x="34.0" y="192" font-size="10" fill="#8b949e" text-anchor="start">08-25</text><text x="372.0" y="192" font-size="10" fill="#8b949e" text-anchor="middle">09-07</text><text x="710.0" y="192" font-size="10" fill="#8b949e" text-anchor="end">09-20</text>
<polyline fill="none" stroke="#3b82f6" stroke-width="2" points="34.0,174.0 60.0,174.0 86.0,174.0 112.0,174.0 138.0,174.0 164.0,174.0 190.0,174.0 216.0,174.0 242.0,174.0 268.0,174.0 294.0,174.0 320.0,174.0 346.0,174.0 372.0,16.0 398.0,139.8 424.0,166.5 450.0,160.1 476.0,153.7 502.0,149.4 528.0,158.0 554.0,166.5 580.0,166.5 606.0,167.6 632.0,155.9 658.0,156.9 684.0,168.7 710.0,174.0"/>
<polyline fill="none" stroke="#f59e0b" stroke-width="2" points="34.0,174.0 60.0,174.0 86.0,174.0 112.0,174.0 138.0,174.0 164.0,174.0 190.0,174.0 216.0,174.0 242.0,174.0 268.0,174.0 294.0,174.0 320.0,174.0 346.0,174.0 372.0,159.1 398.0,172.9 424.0,172.9 450.0,174.0 476.0,174.0 502.0,174.0 528.0,172.9 554.0,174.0 580.0,174.0 606.0,174.0 632.0,174.0 658.0,174.0 684.0,174.0 710.0,174.0"/>
<circle cx="570" cy="12" r="4" fill="#3b82f6"/>
<text x="580" y="16" font-size="11" fill="#8b949e">clones</text>
<circle cx="642" cy="12" r="4" fill="#f59e0b"/>
<text x="652" y="16" font-size="11" fill="#8b949e">views</text>
</svg>
