<svg xmlns="http://www.w3.org/2000/svg" width="720" height="200" viewBox="0 0 720 200" font-family="-apple-system,Segoe UI,sans-serif" role="img" aria-label="일별 클론·조회 추이">
<title>일별 클론·조회 추이 (2026-08-25 ~ 2026-09-14)</title>
<line x1="34" y1="174.0" x2="710" y2="174.0" stroke="#8b949e" stroke-opacity=".25"/><text x="28" y="178.0" font-size="10" fill="#8b949e" text-anchor="end">0</text><line x1="34" y1="95.0" x2="710" y2="95.0" stroke="#8b949e" stroke-opacity=".25"/><text x="28" y="99.0" font-size="10" fill="#8b949e" text-anchor="end">74</text><line x1="34" y1="16.0" x2="710" y2="16.0" stroke="#8b949e" stroke-opacity=".25"/><text x="28" y="20.0" font-size="10" fill="#8b949e" text-anchor="end">148</text><text x="34.0" y="192" font-size="10" fill="#8b949e" text-anchor="start">08-25</text><text x="372.0" y="192" font-size="10" fill="#8b949e" text-anchor="middle">09-04</text><text x="710.0" y="192" font-size="10" fill="#8b949e" text-anchor="end">09-14</text>
<polyline fill="none" stroke="#3b82f6" stroke-width="2" points="34.0,174.0 67.8,174.0 101.6,174.0 135.4,174.0 169.2,174.0 203.0,174.0 236.8,174.0 270.6,174.0 304.4,174.0 338.2,174.0 372.0,174.0 405.8,174.0 439.6,174.0 473.4,16.0 507.2,139.8 541.0,166.5 574.8,160.1 608.6,153.7 642.4,149.4 676.2,158.0 710.0,174.0"/>
<polyline fill="none" stroke="#f59e0b" stroke-width="2" points="34.0,174.0 67.8,174.0 101.6,174.0 135.4,174.0 169.2,174.0 203.0,174.0 236.8,174.0 270.6,174.0 304.4,174.0 338.2,174.0 372.0,174.0 405.8,174.0 439.6,174.0 473.4,159.1 507.2,172.9 541.0,172.9 574.8,174.0 608.6,174.0 642.4,174.0 676.2,172.9 710.0,174.0"/>
<circle cx="570" cy="12" r="4" fill="#3b82f6"/>
<text x="580" y="16" font-size="11" fill="#8b949e">clones</text>
<circle cx="642" cy="12" r="4" fill="#f59e0b"/>
<text x="652" y="16" font-size="11" fill="#8b949e">views</text>
</svg>
